<svg xmlns="http://www.w3.org/2000/svg" xmlns:xlink="http://www.w3.org/1999/xlink" version="1.1" x="0px" y="0px" viewBox="0 0 512 640" style="enable-background:new 0 0 512 512;" xml:space="preserve"><g><g><g><path d="M182.707,268.57H61.452c-2.492,0-4.511-2.02-4.511-4.512V70.429c0-2.491,2.02-4.511,4.511-4.511h267.472     c2.487,0,4.506,2.014,4.512,4.502l0.368,175.14c0.003,1.198-0.472,2.348-1.318,3.196c-0.846,0.848-1.995,1.325-3.193,1.325     H187.218v13.978C187.218,266.551,185.198,268.57,182.707,268.57z M65.963,259.547h112.232v-13.978     c0-2.491,2.02-4.511,4.511-4.511h142.064L324.423,74.94H65.963V259.547z"/></g><g><path d="M450.549,446.081H182.707c-2.491,0-4.511-2.02-4.511-4.512v-196c0-2.491,2.02-4.511,4.511-4.511h267.842     c2.492,0,4.512,2.02,4.512,4.511v196C455.061,444.062,453.041,446.081,450.549,446.081z M187.218,437.059h258.819V250.081     H187.218V437.059z"/></g><g><path d="M450.549,446.081H182.707c-1.957,0-3.69-1.261-4.292-3.123c-0.603-1.861,0.064-3.898,1.649-5.045l108.491-78.402     c1.85-1.337,4.409-1.08,5.958,0.599l23.761,25.762l23.134-25.721c1.558-1.729,4.173-1.991,6.041-0.606l105.786,78.401     c1.563,1.159,2.207,3.189,1.598,5.038C454.223,444.832,452.495,446.081,450.549,446.081z M196.651,437.059h240.234     l-91.513-67.824l-23.702,26.353c-0.85,0.943-2.057,1.486-3.326,1.494c-1.307,0.007-2.483-0.519-3.345-1.452l-24.404-26.46     L196.651,437.059z"/></g><g><path d="M318.316,397.081c-1.259,0-2.462-0.525-3.315-1.452l-135.61-147c-1.215-1.317-1.535-3.228-0.816-4.869     c0.719-1.641,2.341-2.702,4.132-2.702h267.842c1.781,0,3.396,1.048,4.121,2.675c0.725,1.627,0.425,3.529-0.767,4.853     l-132.232,147c-0.85,0.943-2.057,1.486-3.326,1.494C318.335,397.081,318.326,397.081,318.316,397.081z M193.006,250.081     l125.268,135.791l122.148-135.791H193.006z"/></g><g><path d="M159.913,175.763H90.908c-2.491,0-4.511-2.02-4.511-4.511V99.937c0-2.491,2.02-4.511,4.511-4.511h69.004     c2.491,0,4.511,2.02,4.511,4.511v71.314C164.424,173.743,162.404,175.763,159.913,175.763z M95.419,166.74h59.982v-62.292H95.419     V166.74z"/></g><g><path d="M304.636,111.051h-97.27c-2.491,0-4.511-2.02-4.511-4.511c0-2.491,2.02-4.511,4.511-4.511h97.27     c2.491,0,4.511,2.02,4.511,4.511C309.146,109.031,307.127,111.051,304.636,111.051z"/></g><g><path d="M304.636,137.873h-97.27c-2.491,0-4.511-2.02-4.511-4.511c0-2.492,2.02-4.512,4.511-4.512h97.27     c2.491,0,4.511,2.02,4.511,4.512C309.146,135.853,307.127,137.873,304.636,137.873z"/></g><g><path d="M304.636,164.688h-97.27c-2.491,0-4.511-2.02-4.511-4.511s2.02-4.511,4.511-4.511h97.27c2.491,0,4.511,2.02,4.511,4.511     S307.127,164.688,304.636,164.688z"/></g><g><path d="M304.636,201.041H90.908c-2.491,0-4.511-2.02-4.511-4.511c0-2.492,2.02-4.512,4.511-4.512h213.728     c2.491,0,4.511,2.02,4.511,4.512C309.146,199.021,307.127,201.041,304.636,201.041z"/></g><g><path d="M304.636,227.863H90.908c-2.491,0-4.511-2.02-4.511-4.511c0-2.492,2.02-4.511,4.511-4.511h213.728     c2.491,0,4.511,2.02,4.511,4.511C309.146,225.843,307.127,227.863,304.636,227.863z"/></g><rect x="82.509" y="309.225" style="" width="14.625" height="14.588" fill-rule="evenodd" clip-rule="evenodd"/><rect x="114.931" y="309.225" style="" width="14.633" height="14.588" fill-rule="evenodd" clip-rule="evenodd"/><rect x="147.362" y="309.225" style="" width="14.638" height="14.588" fill-rule="evenodd" clip-rule="evenodd"/><rect x="82.509" y="341.626" style="" width="14.625" height="14.583" fill-rule="evenodd" clip-rule="evenodd"/><rect x="114.931" y="341.626" style="" width="14.633" height="14.583" fill-rule="evenodd" clip-rule="evenodd"/><rect x="147.362" y="341.626" style="" width="14.638" height="14.583" fill-rule="evenodd" clip-rule="evenodd"/><rect x="349.447" y="115.596" style="" width="14.623" height="14.588" fill-rule="evenodd" clip-rule="evenodd"/><rect x="381.87" y="115.596" style="" width="14.631" height="14.588" fill-rule="evenodd" clip-rule="evenodd"/><rect x="414.299" y="115.596" style="" width="14.639" height="14.588" fill-rule="evenodd" clip-rule="evenodd"/><rect x="349.447" y="147.997" style="" width="14.623" height="14.583" fill-rule="evenodd" clip-rule="evenodd"/><rect x="381.87" y="147.997" style="" width="14.631" height="14.583" fill-rule="evenodd" clip-rule="evenodd"/><rect x="414.299" y="147.997" style="" width="14.639" height="14.583" fill-rule="evenodd" clip-rule="evenodd"/></g></g></svg>