<svg xmlns="http://www.w3.org/2000/svg" viewBox="0 0 64 80" x="0px" y="0px"><title>a</title><g data-name="05 Video Trailer"><path d="M58,4H6a6.006,6.006,0,0,0-6,6V46a6.006,6.006,0,0,0,6,6H23.438l-1,4H20a2,2,0,0,0,0,4H44a2,2,0,0,0,0-4H41.561l-1-4H58a6.006,6.006,0,0,0,6-6V10A6.006,6.006,0,0,0,58,4ZM37.438,56H26.561l1-4h8.877ZM60,46a2,2,0,0,1-2,2H6a2,2,0,0,1-2-2V10A2,2,0,0,1,6,8H58a2,2,0,0,1,2,2Z"/><path d="M10,36H38a2,2,0,0,0,2-2V14a2,2,0,0,0-2-2H10a2,2,0,0,0-2,2V34A2,2,0,0,0,10,36Zm2-20H36V32H12Z"/><path d="M54,40H26a2,2,0,0,0,0,4H54a2,2,0,0,0,0-4Z"/><path d="M14,40H10a2,2,0,0,0,0,4h4a2,2,0,0,0,0-4Z"/><path d="M18.58,40.59A2,2,0,0,0,20,44a2,2,0,0,0,1.41-3.42A2.071,2.071,0,0,0,18.58,40.59Z"/><path d="M28.894,22.211l-8-4A2,2,0,0,0,18,20v8a2,2,0,0,0,2.894,1.789l8-4a2,2,0,0,0,0-3.578ZM22,24.764V23.236L23.528,24Z"/><path d="M54,12H46a2,2,0,0,0,0,4h8a2,2,0,0,0,0-4Z"/><path d="M46,22h4a2,2,0,0,0,0-4H46a2,2,0,0,0,0,4Z"/><path d="M54,24H46a2,2,0,0,0,0,4h8a2,2,0,0,0,0-4Z"/><path d="M50,34a2,2,0,0,0,0-4H46a2,2,0,0,0,0,4Z"/></g></svg>